<?xml version="1.0" encoding="iso-8859-1"?>
<!-- Generator: Adobe Illustrator 19.0.0, SVG Export Plug-In . SVG Version: 6.00 Build 0)  -->
<svg version="1.1" id="Layer_1" xmlns="http://www.w3.org/2000/svg" xmlns:xlink="http://www.w3.org/1999/xlink" x="0px" y="0px"
	 viewBox="0 0 512 512" style="enable-background:new 0 0 512 512;" xml:space="preserve">
<polygon style="fill:#EC2620;" points="456.966,153.397 337.241,153.397 337.241,67.88 456.966,67.88 414.207,110.638 "/>
<rect x="260.272" y="25.121" style="fill:#FF5800;" width="119.725" height="85.518"/>
<rect x="260.272" y="25.121" style="fill:#EC2620;" width="17.103" height="85.518"/>
<g>
	<polygon style="fill:#94C54B;" points="260.276,179.052 499.725,504.019 20.826,504.019 &#9;"/>
    <polygon style="fill:#94C54B;" points="260.2760009765625 179.052001953125 501.8869934082031 512 16.20400047302246 512.2379760742188"/>
  </g>
<polygon style="fill:#E7EBEC;" points="191.862,324.432 226.069,358.639 260.276,324.432 294.483,358.639 328.69,324.432 
	362.897,358.639 380,341.536 260.276,179.052 140.551,341.536 157.655,358.639 "/>
<path style="fill:#CED7D9;" d="M174.758,42.224c-3.956,0-7.702,0.897-11.048,2.496c1.599-3.346,2.496-7.092,2.496-11.048
	c0-14.169-11.486-25.655-25.655-25.655s-25.655,11.486-25.655,25.655c0,3.956,0.897,7.702,2.496,11.048
	c-3.346-1.599-7.092-2.496-11.048-2.496c-14.169,0-25.655,11.486-25.655,25.655s11.486,25.655,25.655,25.655h68.414
	c14.169,0,25.655-11.486,25.655-25.655S188.927,42.224,174.758,42.224z"/>
<path style="fill:#B6C4C6;" d="M183.31,76.431h-68.414c-14.169,0-25.655-11.486-25.655-25.655c0-0.706,0.036-1.402,0.092-2.094
	c-5.3,4.7-8.644,11.557-8.644,19.198c0,14.169,11.486,25.655,25.655,25.655h68.414c13.464,0,24.497-10.373,25.563-23.561
	C195.793,73.989,189.838,76.431,183.31,76.431z"/>
<path style="fill:#CED7D9;" d="M474.07,230.363c-3.956,0-7.702,0.897-11.048,2.496c1.599-3.346,2.496-7.092,2.496-11.048
	c0-14.169-11.486-25.655-25.655-25.655s-25.655,11.486-25.655,25.655c0,3.956,0.897,7.702,2.496,11.048
	c-3.346-1.599-7.092-2.496-11.048-2.496c-14.169,0-25.655,11.486-25.655,25.655s11.486,25.655,25.655,25.655h68.414
	c14.169,0,25.655-11.486,25.655-25.655S488.239,230.363,474.07,230.363z"/>
<path style="fill:#B6C4C6;" d="M482.621,264.57h-68.414c-14.169,0-25.655-11.486-25.655-25.655c0-0.706,0.036-1.402,0.092-2.094
	c-5.3,4.7-8.644,11.557-8.644,19.198c0,14.169,11.486,25.655,25.655,25.655h68.414c13.464,0,24.496-10.373,25.563-23.561
	C495.105,262.127,489.149,264.57,482.621,264.57z"/>
<path style="fill:#CED7D9;" d="M106.344,264.57c-3.956,0-7.702,0.897-11.048,2.496c1.599-3.346,2.496-7.092,2.496-11.048
	c0-14.169-11.486-25.655-25.655-25.655s-25.655,11.486-25.655,25.655c0,3.956,0.897,7.702,2.496,11.048
	c-3.346-1.599-7.092-2.496-11.048-2.496c-14.169,0-25.655,11.486-25.655,25.655S23.761,315.88,37.93,315.88h68.414
	c14.169,0,25.655-11.486,25.655-25.655S120.513,264.57,106.344,264.57z"/>
<path style="fill:#B6C4C6;" d="M114.896,298.777H46.482c-14.169,0-25.655-11.486-25.655-25.655c0-0.706,0.036-1.402,0.092-2.094
	c-5.3,4.7-8.644,11.557-8.644,19.198c0,14.169,11.486,25.655,25.655,25.655h68.414c13.464,0,24.496-10.373,25.563-23.561
	C127.379,296.334,121.424,298.777,114.896,298.777z"/>
<path d="M329.744,259.815c-2.626-3.564-7.644-4.322-11.21-1.699c-3.564,2.626-4.325,7.645-1.699,11.21l52.621,71.415l-6.559,6.56
	l-28.537-28.538c-3.132-3.13-8.208-3.13-11.339,0l-28.537,28.538l-28.537-28.538c-3.132-3.13-8.208-3.13-11.339,0l-28.537,28.538
	l-28.537-28.538c-3.132-3.13-8.208-3.13-11.339,0l-28.537,28.538l-6.559-6.56l109.18-148.173l37.652,51.099
	c2.592,3.516,7.693,4.29,11.21,1.699c3.518-2.591,4.289-7.694,1.699-11.21l-42.544-57.737v-57.763h60.931v34.742
	c0,4.429,3.589,8.017,8.017,8.017h119.725c6.988,0,10.616-8.739,5.67-13.687l-37.094-37.089l37.09-37.089
	c4.946-4.948,1.32-13.687-5.669-13.687h-68.949V25.121c0-4.429-3.589-8.017-8.017-8.017h-59.862c-4.429,0-8.017,3.589-8.017,8.017
	s3.589,8.017,8.017,8.017h51.845v69.483h-103.69V33.138h17.638c4.429,0,8.017-3.589,8.017-8.017s-3.589-8.017-8.017-8.017h-17.638
	V8.017c0-4.429-3.589-8.017-8.017-8.017s-8.017,3.589-8.017,8.017v168.4L134.097,336.78L14.372,499.263
	c-2.518,3.419-1.874,8.386,1.46,11.027c3.507,2.779,8.791,2.094,11.45-1.516l114.194-154.978l10.51,10.511
	c3.132,3.13,8.208,3.13,11.339,0l28.537-28.538l28.537,28.538c3.132,3.13,8.208,3.13,11.339,0l28.537-28.538l28.537,28.538
	c3.132,3.13,8.208,3.13,11.339,0l28.537-28.538l28.537,28.538c3.132,3.13,8.208,3.13,11.339,0l10.51-10.511l114.194,154.978
	c2.833,3.845,8.556,4.325,12.007,1.027c2.873-2.746,3.257-7.343,0.902-10.54L329.744,259.815z M380,118.656
	c4.429,0,8.017-3.589,8.017-8.017V75.897h49.594l-29.073,29.072c-3.131,3.132-3.131,8.208,0,11.339l29.072,29.073h-92.353v-26.724
	H380z"/>
<path d="M106.344,101.552h68.414c18.567,0,33.673-15.106,33.673-33.673c0-18.745-15.439-33.93-34.211-33.668
	c0.003-0.18,0.004-0.359,0.004-0.539C174.224,15.106,159.118,0,140.551,0s-33.673,15.106-33.673,33.673
	c0,0.18,0.001,0.359,0.004,0.539c-0.18-0.003-0.359-0.004-0.539-0.004c-18.567,0-33.673,15.106-33.673,33.673
	S87.777,101.552,106.344,101.552z M106.344,50.242c2.66,0,5.213,0.576,7.591,1.712c3.033,1.452,6.751,0.811,9.127-1.564
	c2.376-2.375,3.013-6.094,1.564-9.127c-1.136-2.377-1.712-4.93-1.712-7.591c0-9.725,7.913-17.638,17.638-17.638
	c9.725,0,17.638,7.913,17.638,17.638c0,2.66-0.576,5.213-1.712,7.591c-1.451,3.034-0.813,6.751,1.564,9.127
	c2.376,2.375,6.094,3.016,9.127,1.564c2.377-1.136,4.93-1.712,7.591-1.712c9.725,0,17.638,7.913,17.638,17.638
	s-7.913,17.638-17.638,17.638h-68.414c-9.725,0-17.638-7.913-17.638-17.638S96.619,50.242,106.344,50.242z"/>
<path d="M439.862,188.139c-18.567,0-33.673,15.106-33.673,33.673c0,0.18,0.001,0.359,0.004,0.539
	c-0.18-0.003-0.359-0.004-0.539-0.004c-18.567,0-33.673,15.106-33.673,33.673c0,18.567,15.106,33.673,33.673,33.673h68.414
	c18.567,0,33.673-15.106,33.673-33.673s-15.106-33.673-33.673-33.673c-0.18,0-0.359,0.001-0.539,0.004
	c0.003-0.18,0.004-0.359,0.004-0.539C473.535,203.244,458.429,188.139,439.862,188.139z M474.07,238.38
	c9.725,0,17.638,7.913,17.638,17.638c0,9.725-7.913,17.638-17.638,17.638h-68.414c-9.725,0-17.638-7.913-17.638-17.638
	c0-9.725,7.913-17.638,17.638-17.638c2.66,0,5.213,0.576,7.591,1.712c3.034,1.452,6.751,0.812,9.127-1.564
	c2.376-2.376,3.013-6.093,1.564-9.127c-1.136-2.377-1.712-4.93-1.712-7.591c0-9.725,7.913-17.638,17.638-17.638
	c9.725,0,17.638,7.913,17.638,17.638c0,2.66-0.576,5.213-1.712,7.591c-1.451,3.034-0.813,6.751,1.564,9.127
	c2.376,2.375,6.094,3.016,9.127,1.564C468.856,238.956,471.41,238.38,474.07,238.38z"/>
<path d="M37.93,323.898h68.414c18.567,0,33.673-15.106,33.673-33.673s-15.106-33.673-33.673-33.673c-0.18,0-0.359,0.001-0.539,0.004
	c0.003-0.18,0.004-0.359,0.004-0.539c0-18.567-15.106-33.673-33.673-33.673s-33.673,15.106-33.673,33.673
	c0,0.18,0.001,0.359,0.004,0.539c-18.774-0.262-34.21,14.923-34.211,33.668C4.257,308.792,19.363,323.898,37.93,323.898z
	 M37.93,272.587c2.66,0,5.213,0.576,7.591,1.712c3.033,1.452,6.751,0.812,9.127-1.564c2.376-2.376,3.013-6.093,1.564-9.127
	c-1.136-2.377-1.712-4.93-1.712-7.591c0-9.725,7.913-17.638,17.638-17.638s17.638,7.913,17.638,17.638
	c0,2.66-0.576,5.213-1.712,7.591c-1.44,3.012-0.796,6.768,1.564,9.127c2.359,2.359,6.116,3.005,9.127,1.564
	c2.377-1.136,4.93-1.712,7.591-1.712c9.725,0,17.638,7.912,17.638,17.638c0,9.725-7.913,17.638-17.638,17.638H37.93
	c-9.725,0-17.638-7.913-17.638-17.638S28.205,272.587,37.93,272.587z"/>
<g>
</g>
<g>
</g>
<g>
</g>
<g>
</g>
<g>
</g>
<g>
</g>
<g>
</g>
<g>
</g>
<g>
</g>
<g>
</g>
<g>
</g>
<g>
</g>
<g>
</g>
<g>
</g>
<g>
</g>
</svg>
