<?xml version="1.0" encoding="utf-8"?>
<svg version="1.1" id="Layer_1" xmlns="http://www.w3.org/2000/svg" xmlns:xlink="http://www.w3.org/1999/xlink" x="0px" y="0px"
	 viewBox="0 0 512 512" style="enable-background:new 0 0 512 512;" xml:space="preserve">
     <g>
    <polygon style="fill:#94C54B;" points="260.276,179.052 499.725,504.019 20.826,504.019 &#9;"/>
    <polygon style="fill:#94C54B;" points="260.2760009765625 179.052001953125 501.8869934082031 512 16.20400047302246 512.2379760742188"/>
  </g>
  <polygon style="fill:#E7EBEC;" points="191.862,324.432 226.069,358.639 260.276,324.432 294.483,358.639 328.69,324.432 &#10;&#9;362.897,358.639 380,341.536 260.276,179.052 140.551,341.536 157.655,358.639 "/>
  <path style="fill:#CED7D9;" d="M174.758,42.224c-3.956,0-7.702,0.897-11.048,2.496c1.599-3.346,2.496-7.092,2.496-11.048 c0-14.169-11.486-25.655-25.655-25.655s-25.655,11.486-25.655,25.655c0,3.956,0.897,7.702,2.496,11.048 c-3.346-1.599-7.092-2.496-11.048-2.496c-14.169,0-25.655,11.486-25.655,25.655s11.486,25.655,25.655,25.655h68.414 c14.169,0,25.655-11.486,25.655-25.655S188.927,42.224,174.758,42.224z"/>
  <path style="fill:#B6C4C6;" d="M183.31,76.431h-68.414c-14.169,0-25.655-11.486-25.655-25.655c0-0.706,0.036-1.402,0.092-2.094 c-5.3,4.7-8.644,11.557-8.644,19.198c0,14.169,11.486,25.655,25.655,25.655h68.414c13.464,0,24.497-10.373,25.563-23.561 C195.793,73.989,189.838,76.431,183.31,76.431z"/>
  <path style="fill:#CED7D9;" d="M474.07,230.363c-3.956,0-7.702,0.897-11.048,2.496c1.599-3.346,2.496-7.092,2.496-11.048 c0-14.169-11.486-25.655-25.655-25.655s-25.655,11.486-25.655,25.655c0,3.956,0.897,7.702,2.496,11.048 c-3.346-1.599-7.092-2.496-11.048-2.496c-14.169,0-25.655,11.486-25.655,25.655s11.486,25.655,25.655,25.655h68.414 c14.169,0,25.655-11.486,25.655-25.655S488.239,230.363,474.07,230.363z"/>
  <path style="fill:#B6C4C6;" d="M482.621,264.57h-68.414c-14.169,0-25.655-11.486-25.655-25.655c0-0.706,0.036-1.402,0.092-2.094 c-5.3,4.7-8.644,11.557-8.644,19.198c0,14.169,11.486,25.655,25.655,25.655h68.414c13.464,0,24.496-10.373,25.563-23.561 C495.105,262.127,489.149,264.57,482.621,264.57z"/>
  <path style="fill:#CED7D9;" d="M106.344,264.57c-3.956,0-7.702,0.897-11.048,2.496c1.599-3.346,2.496-7.092,2.496-11.048 c0-14.169-11.486-25.655-25.655-25.655s-25.655,11.486-25.655,25.655c0,3.956,0.897,7.702,2.496,11.048 c-3.346-1.599-7.092-2.496-11.048-2.496c-14.169,0-25.655,11.486-25.655,25.655S23.761,315.88,37.93,315.88h68.414 c14.169,0,25.655-11.486,25.655-25.655S120.513,264.57,106.344,264.57z"/>
  <path style="fill:#B6C4C6;" d="M114.896,298.777H46.482c-14.169,0-25.655-11.486-25.655-25.655c0-0.706,0.036-1.402,0.092-2.094 c-5.3,4.7-8.644,11.557-8.644,19.198c0,14.169,11.486,25.655,25.655,25.655h68.414c13.464,0,24.496-10.373,25.563-23.561 C127.379,296.334,121.424,298.777,114.896,298.777z"/>
  <path d="M 329.744 259.815 C 327.118 256.251 322.1 255.493 318.534 258.116 C 314.97 260.742 314.209 265.761 316.835 269.326 L 369.456 340.741 L 334.36 318.763 C 331.228 315.633 326.152 315.633 323.021 318.763 L 294.484 347.301 L 265.947 318.763 C 262.815 315.633 257.739 315.633 254.608 318.763 L 226.071 347.301 L 197.534 318.763 C 194.402 315.633 189.326 315.633 186.195 318.763 L 157.658 347.301 L 151.099 340.741 L 260.279 192.568 L 297.931 243.667 C 300.523 247.183 305.624 247.957 309.141 245.366 C 312.659 242.775 313.43 237.672 310.84 234.156 C 310.84 234.156 280.927 193.084 268.296 176.419 C 265.351 172.534 259.274 168.435 253.671 176.578 C 219.74 225.892 134.097 336.78 134.097 336.78 L 14.372 499.263 C 11.854 502.682 12.498 507.649 15.832 510.29 C 19.339 513.069 24.623 512.384 27.282 508.774 L 141.476 353.796 L 151.986 364.307 C 155.118 367.437 160.194 367.437 163.325 364.307 L 191.862 335.769 L 220.399 364.307 C 223.531 367.437 228.607 367.437 231.738 364.307 L 260.275 335.769 L 288.812 364.307 C 291.944 367.437 297.02 367.437 300.151 364.307 L 328.688 335.769 L 357.225 364.307 C 360.357 367.437 365.433 367.437 368.564 364.307 L 379.074 353.796 L 493.268 508.774 C 496.101 512.619 501.824 513.099 505.275 509.801 C 508.148 507.055 508.532 502.458 506.177 499.261 L 329.744 259.815 Z"/>
  <path d="M106.344,101.552h68.414c18.567,0,33.673-15.106,33.673-33.673c0-18.745-15.439-33.93-34.211-33.668 c0.003-0.18,0.004-0.359,0.004-0.539C174.224,15.106,159.118,0,140.551,0s-33.673,15.106-33.673,33.673 c0,0.18,0.001,0.359,0.004,0.539c-0.18-0.003-0.359-0.004-0.539-0.004c-18.567,0-33.673,15.106-33.673,33.673 S87.777,101.552,106.344,101.552z M106.344,50.242c2.66,0,5.213,0.576,7.591,1.712c3.033,1.452,6.751,0.811,9.127-1.564 c2.376-2.375,3.013-6.094,1.564-9.127c-1.136-2.377-1.712-4.93-1.712-7.591c0-9.725,7.913-17.638,17.638-17.638 c9.725,0,17.638,7.913,17.638,17.638c0,2.66-0.576,5.213-1.712,7.591c-1.451,3.034-0.813,6.751,1.564,9.127 c2.376,2.375,6.094,3.016,9.127,1.564c2.377-1.136,4.93-1.712,7.591-1.712c9.725,0,17.638,7.913,17.638,17.638 s-7.913,17.638-17.638,17.638h-68.414c-9.725,0-17.638-7.913-17.638-17.638S96.619,50.242,106.344,50.242z"/>
  <path d="M439.862,188.139c-18.567,0-33.673,15.106-33.673,33.673c0,0.18,0.001,0.359,0.004,0.539 c-0.18-0.003-0.359-0.004-0.539-0.004c-18.567,0-33.673,15.106-33.673,33.673c0,18.567,15.106,33.673,33.673,33.673h68.414 c18.567,0,33.673-15.106,33.673-33.673s-15.106-33.673-33.673-33.673c-0.18,0-0.359,0.001-0.539,0.004 c0.003-0.18,0.004-0.359,0.004-0.539C473.535,203.244,458.429,188.139,439.862,188.139z M474.07,238.38 c9.725,0,17.638,7.913,17.638,17.638c0,9.725-7.913,17.638-17.638,17.638h-68.414c-9.725,0-17.638-7.913-17.638-17.638 c0-9.725,7.913-17.638,17.638-17.638c2.66,0,5.213,0.576,7.591,1.712c3.034,1.452,6.751,0.812,9.127-1.564 c2.376-2.376,3.013-6.093,1.564-9.127c-1.136-2.377-1.712-4.93-1.712-7.591c0-9.725,7.913-17.638,17.638-17.638 c9.725,0,17.638,7.913,17.638,17.638c0,2.66-0.576,5.213-1.712,7.591c-1.451,3.034-0.813,6.751,1.564,9.127 c2.376,2.375,6.094,3.016,9.127,1.564C468.856,238.956,471.41,238.38,474.07,238.38z"/>
  <path d="M37.93,323.898h68.414c18.567,0,33.673-15.106,33.673-33.673s-15.106-33.673-33.673-33.673c-0.18,0-0.359,0.001-0.539,0.004 c0.003-0.18,0.004-0.359,0.004-0.539c0-18.567-15.106-33.673-33.673-33.673s-33.673,15.106-33.673,33.673 c0,0.18,0.001,0.359,0.004,0.539c-18.774-0.262-34.21,14.923-34.211,33.668C4.257,308.792,19.363,323.898,37.93,323.898z M37.93,272.587c2.66,0,5.213,0.576,7.591,1.712c3.033,1.452,6.751,0.812,9.127-1.564c2.376-2.376,3.013-6.093,1.564-9.127 c-1.136-2.377-1.712-4.93-1.712-7.591c0-9.725,7.913-17.638,17.638-17.638s17.638,7.913,17.638,17.638 c0,2.66-0.576,5.213-1.712,7.591c-1.44,3.012-0.796,6.768,1.564,9.127c2.359,2.359,6.116,3.005,9.127,1.564 c2.377-1.136,4.93-1.712,7.591-1.712c9.725,0,17.638,7.912,17.638,17.638c0,9.725-7.913,17.638-17.638,17.638H37.93 c-9.725,0-17.638-7.913-17.638-17.638S28.205,272.587,37.93,272.587z"/>
  <g/>
  <g/>
  <g/>
  <g/> 
  <g/>
  <g/>
  <g/>
  <g/>
  <g/>
  <g/>
  <g/>
  <g/>
  <g/>
  <g/>
  <g/>
</svg>